<mxfile host="Electron" agent="Mozilla/5.0 (Windows NT 10.0; Win64; x64) AppleWebKit/537.36 (KHTML, like Gecko) draw.io/24.7.17 Chrome/128.0.6613.36 Electron/32.0.1 Safari/537.36" version="24.7.17">
  <diagram name="Page-1" id="Q6Zx7CpkVnZ3SslA2fvu">
    <mxGraphModel dx="1295" dy="758" grid="1" gridSize="10" guides="1" tooltips="1" connect="1" arrows="1" fold="1" page="1" pageScale="1" pageWidth="850" pageHeight="1100" math="0" shadow="0">
      <root>
        <mxCell id="0" />
        <mxCell id="1" parent="0" />
        <mxCell id="-0X-XczgIMx44bDGRh8q-4" style="edgeStyle=orthogonalEdgeStyle;rounded=0;orthogonalLoop=1;jettySize=auto;html=1;" parent="1" source="-0X-XczgIMx44bDGRh8q-1" target="-0X-XczgIMx44bDGRh8q-3" edge="1">
          <mxGeometry relative="1" as="geometry" />
        </mxCell>
        <mxCell id="-0X-XczgIMx44bDGRh8q-1" value="" style="strokeWidth=2;html=1;shape=mxgraph.flowchart.start_2;whiteSpace=wrap;" parent="1" vertex="1">
          <mxGeometry x="210" y="90" width="50" height="50" as="geometry" />
        </mxCell>
        <mxCell id="-0X-XczgIMx44bDGRh8q-2" value="" style="strokeWidth=2;html=1;shape=mxgraph.flowchart.start_2;whiteSpace=wrap;" parent="1" vertex="1">
          <mxGeometry x="210" y="700" width="50" height="50" as="geometry" />
        </mxCell>
        <mxCell id="-0X-XczgIMx44bDGRh8q-7" value="" style="edgeStyle=orthogonalEdgeStyle;rounded=0;orthogonalLoop=1;jettySize=auto;html=1;" parent="1" source="-0X-XczgIMx44bDGRh8q-3" target="-0X-XczgIMx44bDGRh8q-5" edge="1">
          <mxGeometry relative="1" as="geometry" />
        </mxCell>
        <mxCell id="-0X-XczgIMx44bDGRh8q-3" value="Hiện thị danh sách Tên Website" style="rounded=1;whiteSpace=wrap;html=1;" parent="1" vertex="1">
          <mxGeometry x="170" y="180" width="130" height="50" as="geometry" />
        </mxCell>
        <mxCell id="-0X-XczgIMx44bDGRh8q-10" value="" style="edgeStyle=orthogonalEdgeStyle;rounded=0;orthogonalLoop=1;jettySize=auto;html=1;" parent="1" source="-0X-XczgIMx44bDGRh8q-5" target="-0X-XczgIMx44bDGRh8q-9" edge="1">
          <mxGeometry relative="1" as="geometry" />
        </mxCell>
        <mxCell id="-0X-XczgIMx44bDGRh8q-5" value="Cập nhật" style="rounded=1;whiteSpace=wrap;html=1;" parent="1" vertex="1">
          <mxGeometry x="170" y="270" width="130" height="50" as="geometry" />
        </mxCell>
        <mxCell id="-0X-XczgIMx44bDGRh8q-16" style="edgeStyle=orthogonalEdgeStyle;rounded=0;orthogonalLoop=1;jettySize=auto;html=1;entryX=0.25;entryY=0;entryDx=0;entryDy=0;" parent="1" source="-0X-XczgIMx44bDGRh8q-8" target="-0X-XczgIMx44bDGRh8q-15" edge="1">
          <mxGeometry relative="1" as="geometry" />
        </mxCell>
        <mxCell id="-0X-XczgIMx44bDGRh8q-17" value="Thành công" style="edgeLabel;html=1;align=center;verticalAlign=middle;resizable=0;points=[];" parent="-0X-XczgIMx44bDGRh8q-16" vertex="1" connectable="0">
          <mxGeometry x="0.0194" y="1" relative="1" as="geometry">
            <mxPoint as="offset" />
          </mxGeometry>
        </mxCell>
        <mxCell id="-0X-XczgIMx44bDGRh8q-8" value="" style="strokeWidth=2;html=1;shape=mxgraph.flowchart.decision;whiteSpace=wrap;" parent="1" vertex="1">
          <mxGeometry x="202.5" y="550" width="65" height="60" as="geometry" />
        </mxCell>
        <mxCell id="-0X-XczgIMx44bDGRh8q-13" value="" style="edgeStyle=orthogonalEdgeStyle;rounded=0;orthogonalLoop=1;jettySize=auto;html=1;" parent="1" source="-0X-XczgIMx44bDGRh8q-9" target="-0X-XczgIMx44bDGRh8q-12" edge="1">
          <mxGeometry relative="1" as="geometry" />
        </mxCell>
        <mxCell id="-0X-XczgIMx44bDGRh8q-9" value="Nhập dữ liệu" style="rounded=1;whiteSpace=wrap;html=1;" parent="1" vertex="1">
          <mxGeometry x="170" y="360" width="130" height="50" as="geometry" />
        </mxCell>
        <mxCell id="-0X-XczgIMx44bDGRh8q-14" value="" style="edgeStyle=orthogonalEdgeStyle;rounded=0;orthogonalLoop=1;jettySize=auto;html=1;" parent="1" source="-0X-XczgIMx44bDGRh8q-12" target="-0X-XczgIMx44bDGRh8q-8" edge="1">
          <mxGeometry relative="1" as="geometry" />
        </mxCell>
        <mxCell id="-0X-XczgIMx44bDGRh8q-12" value="Lưu" style="rounded=1;whiteSpace=wrap;html=1;" parent="1" vertex="1">
          <mxGeometry x="170" y="440" width="130" height="50" as="geometry" />
        </mxCell>
        <mxCell id="3DdjecVQf405xqQaO_wR-1" style="edgeStyle=orthogonalEdgeStyle;rounded=0;orthogonalLoop=1;jettySize=auto;html=1;" edge="1" parent="1" source="-0X-XczgIMx44bDGRh8q-15" target="-0X-XczgIMx44bDGRh8q-2">
          <mxGeometry relative="1" as="geometry" />
        </mxCell>
        <mxCell id="-0X-XczgIMx44bDGRh8q-15" value="Thông báo thành công" style="rounded=1;whiteSpace=wrap;html=1;" parent="1" vertex="1">
          <mxGeometry x="30" y="640" width="130" height="50" as="geometry" />
        </mxCell>
        <mxCell id="3DdjecVQf405xqQaO_wR-2" style="edgeStyle=orthogonalEdgeStyle;rounded=0;orthogonalLoop=1;jettySize=auto;html=1;" edge="1" parent="1" source="-0X-XczgIMx44bDGRh8q-21">
          <mxGeometry relative="1" as="geometry">
            <mxPoint x="240" y="700" as="targetPoint" />
          </mxGeometry>
        </mxCell>
        <mxCell id="-0X-XczgIMx44bDGRh8q-21" value="Thông báo lỗi" style="rounded=1;whiteSpace=wrap;html=1;fontSize=12;glass=0;strokeWidth=1;shadow=0;" parent="1" vertex="1">
          <mxGeometry x="320" y="645" width="120" height="40" as="geometry" />
        </mxCell>
        <mxCell id="-0X-XczgIMx44bDGRh8q-22" style="edgeStyle=orthogonalEdgeStyle;rounded=0;orthogonalLoop=1;jettySize=auto;html=1;entryX=0.63;entryY=0.075;entryDx=0;entryDy=0;entryPerimeter=0;" parent="1" source="-0X-XczgIMx44bDGRh8q-8" target="-0X-XczgIMx44bDGRh8q-21" edge="1">
          <mxGeometry relative="1" as="geometry" />
        </mxCell>
        <mxCell id="-0X-XczgIMx44bDGRh8q-23" value="Không thành công" style="edgeLabel;html=1;align=center;verticalAlign=middle;resizable=0;points=[];" parent="-0X-XczgIMx44bDGRh8q-22" vertex="1" connectable="0">
          <mxGeometry x="-0.1445" relative="1" as="geometry">
            <mxPoint as="offset" />
          </mxGeometry>
        </mxCell>
      </root>
    </mxGraphModel>
  </diagram>
</mxfile>
